<mxfile host="app.diagrams.net" modified="2023-10-27T15:45:32.111Z" agent="Mozilla/5.0 (Windows NT 10.0; Win64; x64) AppleWebKit/537.36 (KHTML, like Gecko) Chrome/120.0.0.0 Safari/537.36 Edg/120.0.0.0" etag="SIhBjR9X-3MNaEHJ3bhq" version="22.0.8" type="device">
  <diagram name="Page-1" id="WvmVKUvO-9Wr4N8J7cVf">
    <mxGraphModel dx="781" dy="941" grid="1" gridSize="10" guides="1" tooltips="1" connect="1" arrows="1" fold="1" page="1" pageScale="1" pageWidth="827" pageHeight="1169" math="0" shadow="0">
      <root>
        <mxCell id="0" />
        <mxCell id="1" parent="0" />
        <mxCell id="8BHjfIUNYesXkuhATE4Q-1" value="&amp;lt;variable, 1&amp;gt;" style="rounded=0;whiteSpace=wrap;html=1;fontFamily=Computer Modern;fontSize=20;" vertex="1" parent="1">
          <mxGeometry x="370" y="440" width="150" height="30" as="geometry" />
        </mxCell>
        <mxCell id="8BHjfIUNYesXkuhATE4Q-6" value="VariableList" style="shape=table;startSize=30;container=1;collapsible=0;childLayout=tableLayout;fixedRows=1;rowLines=0;fontStyle=0;strokeColor=default;fontSize=20;fontFamily=Computer Modern;" vertex="1" parent="1">
          <mxGeometry x="160" y="440" width="180" height="120" as="geometry" />
        </mxCell>
        <mxCell id="8BHjfIUNYesXkuhATE4Q-7" value="" style="shape=tableRow;horizontal=0;startSize=0;swimlaneHead=0;swimlaneBody=0;top=0;left=0;bottom=0;right=0;collapsible=0;dropTarget=0;fillColor=none;points=[[0,0.5],[1,0.5]];portConstraint=eastwest;strokeColor=inherit;fontSize=20;fontFamily=Computer Modern;" vertex="1" parent="8BHjfIUNYesXkuhATE4Q-6">
          <mxGeometry y="30" width="180" height="30" as="geometry" />
        </mxCell>
        <mxCell id="8BHjfIUNYesXkuhATE4Q-8" value="1" style="shape=partialRectangle;html=1;whiteSpace=wrap;connectable=0;fillColor=none;top=0;left=0;bottom=0;right=0;overflow=hidden;pointerEvents=1;strokeColor=inherit;fontSize=20;fontFamily=Computer Modern;" vertex="1" parent="8BHjfIUNYesXkuhATE4Q-7">
          <mxGeometry width="40" height="30" as="geometry">
            <mxRectangle width="40" height="30" as="alternateBounds" />
          </mxGeometry>
        </mxCell>
        <mxCell id="8BHjfIUNYesXkuhATE4Q-9" value="&quot;x&quot;" style="shape=partialRectangle;html=1;whiteSpace=wrap;connectable=0;fillColor=none;top=0;left=0;bottom=0;right=0;align=left;spacingLeft=6;overflow=hidden;strokeColor=inherit;fontSize=20;fontFamily=Computer Modern;" vertex="1" parent="8BHjfIUNYesXkuhATE4Q-7">
          <mxGeometry x="40" width="140" height="30" as="geometry">
            <mxRectangle width="140" height="30" as="alternateBounds" />
          </mxGeometry>
        </mxCell>
        <mxCell id="8BHjfIUNYesXkuhATE4Q-10" value="" style="shape=tableRow;horizontal=0;startSize=0;swimlaneHead=0;swimlaneBody=0;top=0;left=0;bottom=0;right=0;collapsible=0;dropTarget=0;fillColor=none;points=[[0,0.5],[1,0.5]];portConstraint=eastwest;strokeColor=inherit;fontSize=20;fontFamily=Computer Modern;" vertex="1" parent="8BHjfIUNYesXkuhATE4Q-6">
          <mxGeometry y="60" width="180" height="30" as="geometry" />
        </mxCell>
        <mxCell id="8BHjfIUNYesXkuhATE4Q-11" value="2" style="shape=partialRectangle;html=1;whiteSpace=wrap;connectable=0;fillColor=none;top=0;left=0;bottom=0;right=0;overflow=hidden;strokeColor=inherit;fontSize=20;fontFamily=Computer Modern;" vertex="1" parent="8BHjfIUNYesXkuhATE4Q-10">
          <mxGeometry width="40" height="30" as="geometry">
            <mxRectangle width="40" height="30" as="alternateBounds" />
          </mxGeometry>
        </mxCell>
        <mxCell id="8BHjfIUNYesXkuhATE4Q-12" value="&quot;xy&quot;" style="shape=partialRectangle;html=1;whiteSpace=wrap;connectable=0;fillColor=none;top=0;left=0;bottom=0;right=0;align=left;spacingLeft=6;overflow=hidden;strokeColor=inherit;fontSize=20;fontFamily=Computer Modern;" vertex="1" parent="8BHjfIUNYesXkuhATE4Q-10">
          <mxGeometry x="40" width="140" height="30" as="geometry">
            <mxRectangle width="140" height="30" as="alternateBounds" />
          </mxGeometry>
        </mxCell>
        <mxCell id="8BHjfIUNYesXkuhATE4Q-13" value="" style="shape=tableRow;horizontal=0;startSize=0;swimlaneHead=0;swimlaneBody=0;top=0;left=0;bottom=0;right=0;collapsible=0;dropTarget=0;fillColor=none;points=[[0,0.5],[1,0.5]];portConstraint=eastwest;strokeColor=inherit;fontSize=20;fontFamily=Computer Modern;" vertex="1" parent="8BHjfIUNYesXkuhATE4Q-6">
          <mxGeometry y="90" width="180" height="30" as="geometry" />
        </mxCell>
        <mxCell id="8BHjfIUNYesXkuhATE4Q-14" value="3" style="shape=partialRectangle;html=1;whiteSpace=wrap;connectable=0;fillColor=none;top=0;left=0;bottom=0;right=0;overflow=hidden;strokeColor=inherit;fontSize=20;fontFamily=Computer Modern;" vertex="1" parent="8BHjfIUNYesXkuhATE4Q-13">
          <mxGeometry width="40" height="30" as="geometry">
            <mxRectangle width="40" height="30" as="alternateBounds" />
          </mxGeometry>
        </mxCell>
        <mxCell id="8BHjfIUNYesXkuhATE4Q-15" value="..." style="shape=partialRectangle;html=1;whiteSpace=wrap;connectable=0;fillColor=none;top=0;left=0;bottom=0;right=0;align=left;spacingLeft=6;overflow=hidden;strokeColor=inherit;fontSize=20;fontFamily=Computer Modern;" vertex="1" parent="8BHjfIUNYesXkuhATE4Q-13">
          <mxGeometry x="40" width="140" height="30" as="geometry">
            <mxRectangle width="140" height="30" as="alternateBounds" />
          </mxGeometry>
        </mxCell>
        <mxCell id="8BHjfIUNYesXkuhATE4Q-16" value="&amp;lt;operator,&quot;+&quot;&amp;gt;" style="rounded=0;whiteSpace=wrap;html=1;fontFamily=Computer Modern;fontSize=20;" vertex="1" parent="1">
          <mxGeometry x="370" y="470" width="150" height="30" as="geometry" />
        </mxCell>
        <mxCell id="8BHjfIUNYesXkuhATE4Q-17" value="&amp;lt;variable, 2&amp;gt;" style="rounded=0;whiteSpace=wrap;html=1;fontFamily=Computer Modern;fontSize=20;" vertex="1" parent="1">
          <mxGeometry x="370" y="500" width="150" height="30" as="geometry" />
        </mxCell>
        <mxCell id="8BHjfIUNYesXkuhATE4Q-18" value="..." style="rounded=0;whiteSpace=wrap;html=1;fontFamily=Computer Modern;fontSize=20;" vertex="1" parent="1">
          <mxGeometry x="370" y="530" width="150" height="30" as="geometry" />
        </mxCell>
        <mxCell id="8BHjfIUNYesXkuhATE4Q-21" value="" style="childLayout=tableLayout;recursiveResize=0;shadow=0;fillColor=none;fontFamily=Computer Modern;fontSize=20;" vertex="1" parent="1">
          <mxGeometry x="330" y="312" width="150" height="26" as="geometry" />
        </mxCell>
        <mxCell id="8BHjfIUNYesXkuhATE4Q-22" value="" style="shape=tableRow;horizontal=0;startSize=0;swimlaneHead=0;swimlaneBody=0;top=0;left=0;bottom=0;right=0;dropTarget=0;collapsible=0;recursiveResize=0;expand=0;fontStyle=0;fillColor=none;strokeColor=inherit;flipH=0;flipV=1;fontFamily=Computer Modern;fontSize=20;" vertex="1" parent="8BHjfIUNYesXkuhATE4Q-21">
          <mxGeometry width="150" height="26" as="geometry" />
        </mxCell>
        <mxCell id="8BHjfIUNYesXkuhATE4Q-23" value="x" style="connectable=0;recursiveResize=0;strokeColor=inherit;fillColor=none;align=center;whiteSpace=wrap;html=1;fontFamily=Computer Modern;fontSize=20;" vertex="1" parent="8BHjfIUNYesXkuhATE4Q-22">
          <mxGeometry width="26" height="26" as="geometry">
            <mxRectangle width="26" height="26" as="alternateBounds" />
          </mxGeometry>
        </mxCell>
        <mxCell id="8BHjfIUNYesXkuhATE4Q-24" value="+" style="connectable=0;recursiveResize=0;strokeColor=inherit;fillColor=none;align=center;whiteSpace=wrap;html=1;fontFamily=Computer Modern;fontSize=20;" vertex="1" parent="8BHjfIUNYesXkuhATE4Q-22">
          <mxGeometry x="26" width="26" height="26" as="geometry">
            <mxRectangle width="26" height="26" as="alternateBounds" />
          </mxGeometry>
        </mxCell>
        <mxCell id="8BHjfIUNYesXkuhATE4Q-25" value="x" style="connectable=0;recursiveResize=0;strokeColor=inherit;fillColor=none;align=center;whiteSpace=wrap;html=1;fontFamily=Computer Modern;fontSize=20;" vertex="1" parent="8BHjfIUNYesXkuhATE4Q-22">
          <mxGeometry x="52" width="26" height="26" as="geometry">
            <mxRectangle width="26" height="26" as="alternateBounds" />
          </mxGeometry>
        </mxCell>
        <mxCell id="8BHjfIUNYesXkuhATE4Q-34" value="y" style="connectable=0;recursiveResize=0;strokeColor=inherit;fillColor=none;align=center;whiteSpace=wrap;html=1;fontFamily=Computer Modern;fontSize=20;" vertex="1" parent="8BHjfIUNYesXkuhATE4Q-22">
          <mxGeometry x="78" width="26" height="26" as="geometry">
            <mxRectangle width="26" height="26" as="alternateBounds" />
          </mxGeometry>
        </mxCell>
        <mxCell id="8BHjfIUNYesXkuhATE4Q-35" value="..." style="connectable=0;recursiveResize=0;strokeColor=inherit;fillColor=none;align=center;whiteSpace=wrap;html=1;fontFamily=Computer Modern;fontSize=20;" vertex="1" parent="8BHjfIUNYesXkuhATE4Q-22">
          <mxGeometry x="104" width="46" height="26" as="geometry">
            <mxRectangle width="46" height="26" as="alternateBounds" />
          </mxGeometry>
        </mxCell>
        <mxCell id="8BHjfIUNYesXkuhATE4Q-46" value="Token Stream" style="text;html=1;strokeColor=none;fillColor=none;align=center;verticalAlign=middle;whiteSpace=wrap;rounded=0;fontFamily=Computer Modern;fontSize=20;" vertex="1" parent="1">
          <mxGeometry x="365" y="410" width="160" height="30" as="geometry" />
        </mxCell>
        <mxCell id="8BHjfIUNYesXkuhATE4Q-47" value="String" style="text;html=1;strokeColor=none;fillColor=none;align=center;verticalAlign=middle;whiteSpace=wrap;rounded=0;fontFamily=Computer Modern;fontSize=20;" vertex="1" parent="1">
          <mxGeometry x="180" y="310" width="160" height="30" as="geometry" />
        </mxCell>
        <mxCell id="8BHjfIUNYesXkuhATE4Q-49" value="" style="endArrow=classic;html=1;rounded=0;" edge="1" parent="1">
          <mxGeometry width="50" height="50" relative="1" as="geometry">
            <mxPoint x="350" y="350" as="sourcePoint" />
            <mxPoint x="350" y="410" as="targetPoint" />
          </mxGeometry>
        </mxCell>
        <mxCell id="8BHjfIUNYesXkuhATE4Q-50" value="Lexcial Analyser" style="edgeLabel;html=1;align=center;verticalAlign=bottom;resizable=0;points=[];fontFamily=Computer Modern;fontSize=20;" vertex="1" connectable="0" parent="8BHjfIUNYesXkuhATE4Q-49">
          <mxGeometry x="0.3156" relative="1" as="geometry">
            <mxPoint as="offset" />
          </mxGeometry>
        </mxCell>
        <mxCell id="8BHjfIUNYesXkuhATE4Q-51" value="&amp;lt;variable, 1&amp;gt;" style="rounded=0;whiteSpace=wrap;html=1;fontFamily=Computer Modern;fontSize=20;" vertex="1" parent="1">
          <mxGeometry x="125" y="740" width="150" height="30" as="geometry" />
        </mxCell>
        <mxCell id="8BHjfIUNYesXkuhATE4Q-52" value="&amp;lt;operator,&quot;+&quot;&amp;gt;" style="rounded=0;whiteSpace=wrap;html=1;fontFamily=Computer Modern;fontSize=20;" vertex="1" parent="1">
          <mxGeometry x="125" y="770" width="150" height="30" as="geometry" />
        </mxCell>
        <mxCell id="8BHjfIUNYesXkuhATE4Q-53" value="&amp;lt;variable, 2&amp;gt;" style="rounded=0;whiteSpace=wrap;html=1;fontFamily=Computer Modern;fontSize=20;" vertex="1" parent="1">
          <mxGeometry x="125" y="800" width="150" height="30" as="geometry" />
        </mxCell>
        <mxCell id="8BHjfIUNYesXkuhATE4Q-55" value="Token Stream" style="text;html=1;strokeColor=none;fillColor=none;align=center;verticalAlign=middle;whiteSpace=wrap;rounded=0;fontFamily=Computer Modern;fontSize=20;" vertex="1" parent="1">
          <mxGeometry x="120" y="710" width="160" height="30" as="geometry" />
        </mxCell>
        <mxCell id="8BHjfIUNYesXkuhATE4Q-62" value="" style="endArrow=classic;html=1;rounded=0;" edge="1" parent="1">
          <mxGeometry width="50" height="50" relative="1" as="geometry">
            <mxPoint x="305" y="814.58" as="sourcePoint" />
            <mxPoint x="405" y="814.58" as="targetPoint" />
          </mxGeometry>
        </mxCell>
        <mxCell id="8BHjfIUNYesXkuhATE4Q-63" value="Syntax Parser" style="edgeLabel;html=1;align=center;verticalAlign=bottom;resizable=0;points=[];fontFamily=Computer Modern;fontSize=20;" vertex="1" connectable="0" parent="8BHjfIUNYesXkuhATE4Q-62">
          <mxGeometry x="-0.4533" y="2" relative="1" as="geometry">
            <mxPoint x="23" y="-63" as="offset" />
          </mxGeometry>
        </mxCell>
        <mxCell id="8BHjfIUNYesXkuhATE4Q-64" value="Matched Production&lt;br style=&quot;font-size: 15px;&quot;&gt;expr -&amp;gt; expr + expr" style="text;html=1;strokeColor=none;fillColor=none;align=center;verticalAlign=middle;whiteSpace=wrap;rounded=0;fontFamily=Computer Modern;fontSize=15;" vertex="1" parent="1">
          <mxGeometry x="290" y="760" width="130" height="30" as="geometry" />
        </mxCell>
        <mxCell id="8BHjfIUNYesXkuhATE4Q-83" value="&amp;lt;operator,&quot;+&quot;&amp;gt;" style="whiteSpace=wrap;html=1;fontFamily=Computer Modern;fontSize=20;" vertex="1" parent="1">
          <mxGeometry x="505" y="705" width="130" height="40" as="geometry" />
        </mxCell>
        <mxCell id="8BHjfIUNYesXkuhATE4Q-84" value="&amp;lt;variable, 1&amp;gt;" style="whiteSpace=wrap;html=1;fontFamily=Computer Modern;fontSize=20;" vertex="1" parent="1">
          <mxGeometry x="420" y="800" width="130" height="40" as="geometry" />
        </mxCell>
        <mxCell id="8BHjfIUNYesXkuhATE4Q-85" value="" style="edgeStyle=elbowEdgeStyle;elbow=vertical;html=1;rounded=1;curved=0;sourcePerimeterSpacing=0;targetPerimeterSpacing=0;startSize=6;endSize=6;fontFamily=Computer Modern;fontSize=20;" edge="1" parent="1" source="8BHjfIUNYesXkuhATE4Q-83" target="8BHjfIUNYesXkuhATE4Q-84">
          <mxGeometry relative="1" as="geometry" />
        </mxCell>
        <mxCell id="8BHjfIUNYesXkuhATE4Q-86" value="&amp;lt;variable, 2&amp;gt;" style="whiteSpace=wrap;html=1;fontFamily=Computer Modern;fontSize=20;" vertex="1" parent="1">
          <mxGeometry x="590" y="800" width="130" height="40" as="geometry" />
        </mxCell>
        <mxCell id="8BHjfIUNYesXkuhATE4Q-87" value="" style="edgeStyle=elbowEdgeStyle;elbow=vertical;html=1;rounded=1;curved=0;sourcePerimeterSpacing=0;targetPerimeterSpacing=0;startSize=6;endSize=6;fontFamily=Computer Modern;fontSize=20;" edge="1" parent="1" source="8BHjfIUNYesXkuhATE4Q-83" target="8BHjfIUNYesXkuhATE4Q-86">
          <mxGeometry relative="1" as="geometry" />
        </mxCell>
        <mxCell id="8BHjfIUNYesXkuhATE4Q-103" style="edgeStyle=orthogonalEdgeStyle;rounded=0;orthogonalLoop=1;jettySize=auto;html=1;exitX=1;exitY=0.5;exitDx=0;exitDy=0;entryX=1;entryY=0.5;entryDx=0;entryDy=0;" edge="1" parent="1" source="8BHjfIUNYesXkuhATE4Q-88" target="8BHjfIUNYesXkuhATE4Q-100">
          <mxGeometry relative="1" as="geometry">
            <Array as="points">
              <mxPoint x="270" y="1190" />
              <mxPoint x="270" y="1100" />
            </Array>
          </mxGeometry>
        </mxCell>
        <mxCell id="8BHjfIUNYesXkuhATE4Q-104" value="call on a" style="edgeLabel;html=1;align=center;verticalAlign=middle;resizable=0;points=[];" vertex="1" connectable="0" parent="8BHjfIUNYesXkuhATE4Q-103">
          <mxGeometry x="-0.0187" relative="1" as="geometry">
            <mxPoint as="offset" />
          </mxGeometry>
        </mxCell>
        <mxCell id="8BHjfIUNYesXkuhATE4Q-108" value="" style="edgeStyle=orthogonalEdgeStyle;rounded=0;orthogonalLoop=1;jettySize=auto;html=1;" edge="1" parent="1" source="8BHjfIUNYesXkuhATE4Q-88" target="8BHjfIUNYesXkuhATE4Q-107">
          <mxGeometry relative="1" as="geometry" />
        </mxCell>
        <mxCell id="8BHjfIUNYesXkuhATE4Q-109" value="call on b*c^d" style="edgeLabel;html=1;align=center;verticalAlign=middle;resizable=0;points=[];" vertex="1" connectable="0" parent="8BHjfIUNYesXkuhATE4Q-108">
          <mxGeometry x="-0.44" y="-4" relative="1" as="geometry">
            <mxPoint as="offset" />
          </mxGeometry>
        </mxCell>
        <mxCell id="8BHjfIUNYesXkuhATE4Q-88" value="is a Expr" style="rhombus;whiteSpace=wrap;html=1;" vertex="1" parent="1">
          <mxGeometry x="100" y="1150" width="80" height="80" as="geometry" />
        </mxCell>
        <mxCell id="8BHjfIUNYesXkuhATE4Q-102" style="edgeStyle=orthogonalEdgeStyle;rounded=0;orthogonalLoop=1;jettySize=auto;html=1;exitX=0.5;exitY=1;exitDx=0;exitDy=0;entryX=0.5;entryY=0;entryDx=0;entryDy=0;" edge="1" parent="1" source="8BHjfIUNYesXkuhATE4Q-100" target="8BHjfIUNYesXkuhATE4Q-88">
          <mxGeometry relative="1" as="geometry" />
        </mxCell>
        <mxCell id="8BHjfIUNYesXkuhATE4Q-100" value="exprParser" style="rounded=0;whiteSpace=wrap;html=1;" vertex="1" parent="1">
          <mxGeometry x="80" y="1070" width="120" height="60" as="geometry" />
        </mxCell>
        <mxCell id="8BHjfIUNYesXkuhATE4Q-106" value="" style="edgeStyle=orthogonalEdgeStyle;rounded=0;orthogonalLoop=1;jettySize=auto;html=1;" edge="1" parent="1" source="8BHjfIUNYesXkuhATE4Q-101" target="8BHjfIUNYesXkuhATE4Q-100">
          <mxGeometry relative="1" as="geometry" />
        </mxCell>
        <mxCell id="8BHjfIUNYesXkuhATE4Q-101" value="Token Stream&lt;br style=&quot;border-color: var(--border-color);&quot;&gt;a+b*c^d" style="rounded=1;whiteSpace=wrap;html=1;" vertex="1" parent="1">
          <mxGeometry x="80" y="980" width="120" height="60" as="geometry" />
        </mxCell>
        <mxCell id="8BHjfIUNYesXkuhATE4Q-107" value="termParser" style="rounded=0;whiteSpace=wrap;html=1;" vertex="1" parent="1">
          <mxGeometry x="80" y="1280" width="120" height="60" as="geometry" />
        </mxCell>
        <mxCell id="8BHjfIUNYesXkuhATE4Q-110" value="is a Expr" style="rhombus;whiteSpace=wrap;html=1;" vertex="1" parent="1">
          <mxGeometry x="100" y="1380" width="80" height="80" as="geometry" />
        </mxCell>
        <mxCell id="8BHjfIUNYesXkuhATE4Q-111" value="Token Stream&lt;br style=&quot;border-color: var(--border-color);&quot;&gt;a+b*c^d" style="rounded=1;whiteSpace=wrap;html=1;" vertex="1" parent="1">
          <mxGeometry x="460" y="1070" width="120" height="60" as="geometry" />
        </mxCell>
      </root>
    </mxGraphModel>
  </diagram>
</mxfile>
